ffmpeg started on 2016-12-05 at 19:06:41
Report written to "Output/x264/results/ffmpeg/sintelfaster9000k.log"
Command line:
Tools/ffmpeg/ffmpeg -benchmark -y -i Input/y4m/sintel.y4m -c:v libx264 -preset faster -b:v 9000k -an Output/x264/encoded/sintelfaster9000k.mkv
ffmpeg version N-82227-gdb23fde Copyright (c) 2000-2016 the FFmpeg developers
  built with gcc 5.4.0 (Ubuntu 5.4.0-6ubuntu1~16.04.2) 20160609
  configuration: --prefix=/home/jaroslav/ffmpeg_build --pkg-config-flags=--static --extra-cflags=-I/home/jaroslav/ffmpeg_build/include --extra-ldflags=-L/home/jaroslav/ffmpeg_build/lib --bindir=/home/jaroslav/bin --enable-gpl --enable-libass --enable-libfdk-aac --enable-libfreetype --enable-libmp3lame --enable-libopus --enable-libtheora --enable-libvorbis --enable-libvpx --enable-libx264 --enable-libx265 --enable-nvenc --enable-libmfx --enable-libxvid --enable-libgsm --enable-libopencore-amrnb --enable-version3 --enable-nonfree
  libavutil      55. 35.100 / 55. 35.100
  libavcodec     57. 66.101 / 57. 66.101
  libavformat    57. 57.100 / 57. 57.100
  libavdevice    57.  2.100 / 57.  2.100
  libavfilter     6. 66.100 /  6. 66.100
  libswscale      4.  3.100 /  4.  3.100
  libswresample   2.  4.100 /  2.  4.100
  libpostproc    54.  2.100 / 54.  2.100
Input #0, yuv4mpegpipe, from 'Input/y4m/sintel.y4m':
  Duration: 00:00:20.83, start: 0.000000, bitrate: 2057307 kb/s
    Stream #0:0: Video: rawvideo (I420 / 0x30323449), yuv420p(progressive), 4096x1744, SAR 1:1 DAR 256:109, 24 fps, 24 tbr, 24 tbn, 24 tbc
[libx264 @ 0x3f021c0] using SAR=1/1
[libx264 @ 0x3f021c0] using cpu capabilities: MMX2 SSE2Fast SSSE3 SSE4.2 AVX FMA3 AVX2 LZCNT BMI2
[libx264 @ 0x3f021c0] profile High, level 5.1
[libx264 @ 0x3f021c0] 264 - core 148 - H.264/MPEG-4 AVC codec - Copyleft 2003-2016 - http://www.videolan.org/x264.html - options: cabac=1 ref=2 deblock=1:0:0 analyse=0x3:0x113 me=hex subme=4 psy=1 psy_rd=1.00:0.00 mixed_ref=0 me_range=16 chroma_me=1 trellis=1 8x8dct=1 cqm=0 deadzone=21,11 fast_pskip=1 chroma_qp_offset=0 threads=6 lookahead_threads=1 sliced_threads=0 nr=0 decimate=1 interlaced=0 bluray_compat=0 constrained_intra=0 bframes=3 b_pyramid=2 b_adapt=1 b_bias=0 direct=1 weightb=1 open_gop=0 weightp=1 keyint=250 keyint_min=24 scenecut=40 intra_refresh=0 rc_lookahead=20 rc=abr mbtree=1 bitrate=9000 ratetol=1.0 qcomp=0.60 qpmin=0 qpmax=69 qpstep=4 ip_ratio=1.40 aq=1:1.00
Output #0, matroska, to 'Output/x264/encoded/sintelfaster9000k.mkv':
  Metadata:
    encoder         : Lavf57.57.100
    Stream #0:0: Video: h264 (libx264) (H264 / 0x34363248), yuv420p, 4096x1744 [SAR 1:1 DAR 256:109], q=-1--1, 9000 kb/s, 24 fps, 1k tbn, 24 tbc
    Metadata:
      encoder         : Lavc57.66.101 libx264
    Side data:
      cpb: bitrate max/min/avg: 0/0/9000000 buffer size: 0 vbv_delay: -1
Stream mapping:
  Stream #0:0 -> #0:0 (rawvideo (native) -> h264 (libx264))
Press [q] to stop, [?] for help
frame=    8 fps=0.0 q=0.0 size=       0kB time=00:00:00.00 bitrate=N/A speed=   0x    frame=   12 fps= 10 q=0.0 size=       0kB time=00:00:00.00 bitrate=N/A speed=   0x    frame=   21 fps= 12 q=0.0 size=       0kB time=00:00:00.00 bitrate=N/A speed=   0x    frame=   27 fps=8.7 q=0.0 size=       0kB time=00:00:00.00 bitrate=N/A speed=   0x    frame=   33 fps=8.7 q=26.0 size=       1kB time=00:00:00.00 bitrate=5864.0kbits/s speed=0.000263x    frame=   38 fps=8.4 q=43.0 size=       1kB time=00:00:00.20 bitrate=  28.1kbits/s speed=0.0463x    frame=   39 fps=4.8 q=43.0 size=       1kB time=00:00:00.25 bitrate=  23.4kbits/s speed=0.0306x    frame=   40 fps=3.5 q=43.0 size=       1kB time=00:00:00.29 bitrate=  20.0kbits/s speed=0.0254x    frame=   47 fps=3.9 q=43.0 size=       1kB time=00:00:00.58 bitrate=  10.0kbits/s speed=0.0483x    frame=   55 fps=4.4 q=43.0 size=       1kB time=00:00:00.91 bitrate=   6.4kbits/s speed=0.0728x    frame=   63 fps=4.8 q=42.0 size=       1kB time=00:00:01.25 bitrate=   4.7kbits/s speed=0.0953x    frame=   71 fps=5.2 q=42.0 size=       1kB time=00:00:01.58 bitrate=   3.7kbits/s speed=0.116x    frame=   79 fps=5.6 q=41.0 size=       1kB time=00:00:01.91 bitrate=   3.1kbits/s speed=0.135x    frame=   86 fps=5.8 q=40.0 size=       1kB time=00:00:02.20 bitrate=   2.7kbits/s speed=0.15x    frame=   93 fps=6.1 q=40.0 size=       1kB time=00:00:02.50 bitrate=   2.3kbits/s speed=0.164x    frame=  100 fps=6.3 q=40.0 size=       1kB time=00:00:02.79 bitrate=   2.1kbits/s speed=0.177x    frame=  107 fps=6.6 q=40.0 size=       1kB time=00:00:03.08 bitrate=   1.9kbits/s speed=0.189x    frame=  114 fps=6.8 q=39.0 size=       1kB time=00:00:03.37 bitrate=   1.7kbits/s speed= 0.2x    frame=  121 fps=7.0 q=39.0 size=       1kB time=00:00:03.66 bitrate=   1.6kbits/s speed=0.211x    frame=  128 fps=7.1 q=39.0 size=    4896kB time=00:00:03.95 bitrate=10131.1kbits/s speed=0.22x    frame=  136 fps=7.3 q=39.0 size=    4896kB time=00:00:04.29 bitrate=9342.9kbits/s speed=0.231x    frame=  144 fps=7.5 q=38.0 size=    4896kB time=00:00:04.62 bitrate=8670.4kbits/s speed=0.242x    frame=  152 fps=7.7 q=38.0 size=    4896kB time=00:00:04.95 bitrate=8088.2kbits/s speed=0.25x    frame=  161 fps=7.9 q=38.0 size=    4896kB time=00:00:05.33 bitrate=7519.5kbits/s speed=0.262x    frame=  168 fps=8.1 q=38.0 size=    4896kB time=00:00:05.62 bitrate=7129.2kbits/s speed=0.27x    frame=  177 fps=8.3 q=38.0 size=    4896kB time=00:00:06.00 bitrate=6683.7kbits/s speed=0.28x    frame=  183 fps=8.3 q=38.0 size=    4896kB time=00:00:06.25 bitrate=6416.4kbits/s speed=0.285x    frame=  192 fps=8.5 q=38.0 size=    7296kB time=00:00:06.62 bitrate=9020.7kbits/s speed=0.295x    frame=  200 fps=8.7 q=38.0 size=    7296kB time=00:00:06.95 bitrate=8589.1kbits/s speed=0.302x    frame=  207 fps=8.8 q=37.0 size=    7296kB time=00:00:07.25 bitrate=8243.2kbits/s speed=0.308x    frame=  211 fps=8.8 q=37.0 size=    7296kB time=00:00:07.41 bitrate=8057.6kbits/s speed=0.308x    frame=  219 fps=8.9 q=37.0 size=    8296kB time=00:00:07.75 bitrate=8768.2kbits/s speed=0.315x    frame=  226 fps=9.0 q=37.0 size=    8296kB time=00:00:08.04 bitrate=8449.9kbits/s speed=0.32x    frame=  234 fps=9.1 q=37.0 size=    8296kB time=00:00:08.37 bitrate=8113.9kbits/s speed=0.326x    frame=  243 fps=9.2 q=37.0 size=    8296kB time=00:00:08.75 bitrate=7766.2kbits/s speed=0.333x    frame=  249 fps=9.3 q=37.0 size=    8296kB time=00:00:09.00 bitrate=7550.5kbits/s speed=0.335x    frame=  256 fps=9.3 q=37.0 size=    8296kB time=00:00:09.29 bitrate=7313.3kbits/s speed=0.339x    frame=  264 fps=9.4 q=36.0 size=    8296kB time=00:00:09.62 bitrate=7060.3kbits/s speed=0.345x    frame=  272 fps=9.5 q=36.0 size=    8296kB time=00:00:09.95 bitrate=6824.2kbits/s speed=0.349x    frame=  281 fps=9.7 q=36.0 size=    8296kB time=00:00:10.33 bitrate=6576.6kbits/s speed=0.356x    frame=  288 fps=9.7 q=36.0 size=    8296kB time=00:00:10.62 bitrate=6395.8kbits/s speed=0.359x    frame=  292 fps=9.7 q=36.0 size=    8296kB time=00:00:10.79 bitrate=6296.9kbits/s speed=0.359x    frame=  302 fps=9.9 q=35.0 size=   11180kB time=00:00:11.20 bitrate=8171.1kbits/s speed=0.366x    frame=  310 fps= 10 q=35.0 size=   11180kB time=00:00:11.54 bitrate=7934.7kbits/s speed=0.371x    frame=  317 fps= 10 q=35.0 size=   11180kB time=00:00:11.83 bitrate=7739.5kbits/s speed=0.374x    frame=  325 fps= 10 q=35.0 size=   11180kB time=00:00:12.16 bitrate=7527.1kbits/s speed=0.378x    frame=  335 fps= 10 q=34.0 size=   11180kB time=00:00:12.58 bitrate=7278.3kbits/s speed=0.384x    frame=  345 fps= 10 q=34.0 size=   11180kB time=00:00:13.00 bitrate=7044.8kbits/s speed=0.391x    frame=  355 fps= 11 q=33.0 size=   11180kB time=00:00:13.41 bitrate=6825.9kbits/s speed=0.397x    frame=  364 fps= 11 q=33.0 size=   11180kB time=00:00:13.79 bitrate=6640.3kbits/s speed=0.402x    frame=  371 fps= 11 q=33.0 size=   11180kB time=00:00:14.08 bitrate=6503.1kbits/s speed=0.403x    frame=  381 fps= 11 q=32.0 size=   11180kB time=00:00:14.50 bitrate=6316.1kbits/s speed=0.409x    frame=  390 fps= 11 q=32.0 size=   11180kB time=00:00:14.87 bitrate=6156.9kbits/s speed=0.414x    frame=  398 fps= 11 q=32.0 size=   13750kB time=00:00:15.20 bitrate=7406.3kbits/s speed=0.416x    frame=  405 fps= 11 q=32.0 size=   13750kB time=00:00:15.50 bitrate=7266.8kbits/s speed=0.417x    frame=  411 fps= 11 q=32.0 size=   13750kB time=00:00:15.75 bitrate=7151.5kbits/s speed=0.418x    frame=  420 fps= 11 q=31.0 size=   13750kB time=00:00:16.12 bitrate=6985.2kbits/s speed=0.422x    frame=  426 fps= 11 q=32.0 size=   13750kB time=00:00:16.37 bitrate=6878.5kbits/s speed=0.422x    frame=  433 fps= 11 q=32.0 size=   13750kB time=00:00:16.66 bitrate=6758.0kbits/s speed=0.423x    frame=  441 fps= 11 q=32.0 size=   13750kB time=00:00:17.00 bitrate=6625.7kbits/s speed=0.425x    frame=  448 fps= 11 q=32.0 size=   13750kB time=00:00:17.29 bitrate=6513.8kbits/s speed=0.427x    frame=  455 fps= 11 q=32.0 size=   16276kB time=00:00:17.58 bitrate=7582.6kbits/s speed=0.429x    frame=  463 fps= 11 q=32.0 size=   16276kB time=00:00:17.91 bitrate=7441.3kbits/s speed=0.431x    frame=  472 fps= 11 q=32.0 size=   16276kB time=00:00:18.29 bitrate=7288.7kbits/s speed=0.435x    frame=  479 fps= 11 q=32.0 size=   16276kB time=00:00:18.58 bitrate=7174.6kbits/s speed=0.436x    frame=  487 fps= 11 q=31.0 size=   16276kB time=00:00:18.91 bitrate=7047.9kbits/s speed=0.436x    frame=  495 fps= 11 q=31.0 size=   16276kB time=00:00:19.25 bitrate=6926.0kbits/s speed=0.439x    frame=  500 fps= 11 q=-1.0 Lsize=   19764kB time=00:00:20.70 bitrate=7818.2kbits/s speed=0.454x    
video:19759kB audio:0kB subtitle:0kB other streams:0kB global headers:0kB muxing overhead: 0.024563%
bench: utime=133.800s
bench: maxrss=1122156kB
[libx264 @ 0x3f021c0] frame I:8     Avg QP:26.45  size:127737
[libx264 @ 0x3f021c0] frame P:269   Avg QP:31.83  size: 47291
[libx264 @ 0x3f021c0] frame B:223   Avg QP:29.76  size: 29101
[libx264 @ 0x3f021c0] consecutive B-frames: 37.0%  8.4%  6.6% 48.0%
[libx264 @ 0x3f021c0] mb I  I16..4: 37.9% 55.0%  7.1%
[libx264 @ 0x3f021c0] mb P  I16..4: 28.4% 30.4%  0.5%  P16..4: 10.3%  2.1%  0.3%  0.0%  0.0%    skip:27.9%
[libx264 @ 0x3f021c0] mb B  I16..4:  6.1%  6.0%  0.4%  B16..8: 17.6%  1.9%  0.1%  direct: 7.8%  skip:60.3%  L0:42.6% L1:52.7% BI: 4.7%
[libx264 @ 0x3f021c0] final ratefactor: 28.94
[libx264 @ 0x3f021c0] 8x8 transform intra:51.0% inter:80.2%
[libx264 @ 0x3f021c0] coded y,uvDC,uvAC intra: 19.2% 19.5% 1.0% inter: 4.7% 4.0% 0.0%
[libx264 @ 0x3f021c0] i16 v,h,dc,p: 47% 25% 13% 15%
[libx264 @ 0x3f021c0] i8 v,h,dc,ddl,ddr,vr,hd,vl,hu: 18% 24% 39%  4%  3%  3%  4%  3%  3%
[libx264 @ 0x3f021c0] i4 v,h,dc,ddl,ddr,vr,hd,vl,hu: 15% 22% 11%  9% 10%  8% 11%  6% 10%
[libx264 @ 0x3f021c0] i8c dc,h,v,p: 76% 12% 11%  1%
[libx264 @ 0x3f021c0] Weighted P-Frames: Y:0.7% UV:0.0%
[libx264 @ 0x3f021c0] ref P L0: 82.3% 17.7%
[libx264 @ 0x3f021c0] ref B L0: 88.4% 11.6%
[libx264 @ 0x3f021c0] ref B L1: 97.0%  3.0%
[libx264 @ 0x3f021c0] kb/s:7769.35
